<?xml version="1.0" encoding="UTF-8" standalone="no"?>
<!DOCTYPE svg PUBLIC "-//W3C//DTD SVG 1.1//EN" "http://www.w3.org/Graphics/SVG/1.1/DTD/svg11.dtd">
<svg width="100%" height="100%" viewBox="0 0 600 462" version="1.1" xmlns="http://www.w3.org/2000/svg" xmlns:xlink="http://www.w3.org/1999/xlink" xml:space="preserve" xmlns:serif="http://www.serif.com/" style="fill-rule:evenodd;clip-rule:evenodd;stroke-linejoin:round;stroke-miterlimit:2;">
    <g transform="matrix(1,0,0,1,-100,-60)">
        <g transform="matrix(7.22429,0,0,7.82269,-1387.82,-1958.25)">
            <path d="M289,263.9C289,260.644 286.137,258 282.611,258L212.336,258C208.81,258 205.947,260.644 205.947,263.9L205.947,311.1C205.947,314.356 208.81,317 212.336,317L282.611,317C286.137,317 289,314.356 289,311.1L289,263.9Z" style="fill:rgb(235,235,235);"/>
            <clipPath id="_clip1">
                <path d="M289,263.9C289,260.644 286.137,258 282.611,258L212.336,258C208.81,258 205.947,260.644 205.947,263.9L205.947,311.1C205.947,314.356 208.81,317 212.336,317L282.611,317C286.137,317 289,314.356 289,311.1L289,263.9Z"/>
            </clipPath>
            <g clip-path="url(#_clip1)">
                <g transform="matrix(0.319435,0,0,0.295,174.003,228.5)">
                    <g>
                        <g transform="matrix(2,0,0,2,-120,-240)">
                            <path d="M140,185C140,182.24 137.76,180 135,180L125,180C122.24,180 120,182.24 120,185L120,195C120,197.76 122.24,200 125,200L135,200C137.76,200 140,197.76 140,195L140,185Z" style="fill:rgb(121,144,201);"/>
                        </g>
                        <g transform="matrix(2,0,0,2,-60,-240)">
                            <path d="M140,185C140,182.24 137.76,180 135,180L125,180C122.24,180 120,182.24 120,185L120,195C120,197.76 122.24,200 125,200L135,200C137.76,200 140,197.76 140,195L140,185Z" style="fill:rgb(121,144,201);"/>
                        </g>
                        <g transform="matrix(2,0,0,2,0,-240)">
                            <path d="M140,185C140,182.24 137.76,180 135,180L125,180C122.24,180 120,182.24 120,185L120,195C120,197.76 122.24,200 125,200L135,200C137.76,200 140,197.76 140,195L140,185Z" style="fill:rgb(121,144,201);"/>
                        </g>
                        <g transform="matrix(2,0,0,2,60,-240)">
                            <path d="M140,185C140,182.24 137.76,180 135,180L125,180C122.24,180 120,182.24 120,185L120,195C120,197.76 122.24,200 125,200L135,200C137.76,200 140,197.76 140,195L140,185Z" style="fill:rgb(121,144,201);"/>
                        </g>
                    </g>
                    <g>
                        <g transform="matrix(2,0,0,2,60,-180)">
                            <path d="M140,185C140,182.24 137.76,180 135,180L125,180C122.24,180 120,182.24 120,185L120,195C120,197.76 122.24,200 125,200L135,200C137.76,200 140,197.76 140,195L140,185Z" style="fill:rgb(66,145,145);"/>
                        </g>
                        <g transform="matrix(2,0,0,2,0,-180)">
                            <path d="M140,185C140,182.24 137.76,180 135,180L125,180C122.24,180 120,182.24 120,185L120,195C120,197.76 122.24,200 125,200L135,200C137.76,200 140,197.76 140,195L140,185Z" style="fill:rgb(66,145,145);"/>
                        </g>
                        <g transform="matrix(2,0,0,2,-60,-180)">
                            <path d="M140,185C140,182.24 137.76,180 135,180L125,180C122.24,180 120,182.24 120,185L120,195C120,197.76 122.24,200 125,200L135,200C137.76,200 140,197.76 140,195L140,185Z" style="fill:rgb(66,145,145);"/>
                        </g>
                        <g transform="matrix(2,0,0,2,-120,-180)">
                            <path d="M140,185C140,182.24 137.76,180 135,180L125,180C122.24,180 120,182.24 120,185L120,195C120,197.76 122.24,200 125,200L135,200C137.76,200 140,197.76 140,195L140,185Z" style="fill:rgb(66,145,145);"/>
                        </g>
                    </g>
                    <g>
                        <g transform="matrix(2,0,0,2,-120,-120)">
                            <path d="M140,185C140,182.24 137.76,180 135,180L125,180C122.24,180 120,182.24 120,185L120,195C120,197.76 122.24,200 125,200L135,200C137.76,200 140,197.76 140,195L140,185Z" style="fill:rgb(105,207,166);"/>
                        </g>
                        <g transform="matrix(2,0,0,2,-60,-120)">
                            <path d="M140,185C140,182.24 137.76,180 135,180L125,180C122.24,180 120,182.24 120,185L120,195C120,197.76 122.24,200 125,200L135,200C137.76,200 140,197.76 140,195L140,185Z" style="fill:rgb(105,207,166);"/>
                        </g>
                        <g transform="matrix(2,0,0,2,2.84217e-14,-120)">
                            <path d="M140,185C140,182.24 137.76,180 135,180L125,180C122.24,180 120,182.24 120,185L120,195C120,197.76 122.24,200 125,200L135,200C137.76,200 140,197.76 140,195L140,185Z" style="fill:rgb(105,207,166);"/>
                        </g>
                        <g transform="matrix(2,0,0,2,60,-120)">
                            <path d="M140,185C140,182.24 137.76,180 135,180L125,180C122.24,180 120,182.24 120,185L120,195C120,197.76 122.24,200 125,200L135,200C137.76,200 140,197.76 140,195L140,185Z" style="fill:rgb(105,207,166);"/>
                        </g>
                    </g>
                </g>
            </g>
        </g>
    </g>
</svg>
